<svg width="75" height="75" viewBox="0 0 75 75" fill="none" xmlns="http://www.w3.org/2000/svg">
<path d="M29.9799 12.3129C30.2624 10.6177 31.7291 9.37524 33.4477 9.37524H41.5538C43.2724 9.37524 44.739 10.6177 45.0216 12.3129L45.6888 16.3162C45.8836 17.4851 46.6648 18.4587 47.7015 19.0326C47.9333 19.1609 48.1625 19.2935 48.3888 19.4302C49.4045 20.0435 50.64 20.2342 51.7511 19.8179L55.5538 18.3933C57.1632 17.7904 58.9725 18.4393 59.8318 19.9277L63.8849 26.9478C64.7441 28.4361 64.4015 30.3275 63.0747 31.4198L59.9361 34.0036C59.022 34.7561 58.5689 35.9181 58.5908 37.1019C58.5932 37.2344 58.5945 37.3672 58.5945 37.5002C58.5945 37.6333 58.5932 37.7661 58.5908 37.8985C58.5689 39.0823 59.022 40.2443 59.9361 40.9968L63.0747 43.5806C64.4015 44.6729 64.7441 46.5643 63.8849 48.0527L59.8318 55.0728C58.9725 56.5611 57.1632 57.2101 55.5538 56.6072L51.7511 55.1825C50.64 54.7663 49.4046 54.957 48.3889 55.5703C48.1625 55.707 47.9334 55.8396 47.7015 55.9679C46.6648 56.5418 45.8836 57.5154 45.6888 58.6843L45.0216 62.6876C44.739 64.3828 43.2724 65.6252 41.5538 65.6252H33.4477C31.7291 65.6252 30.2624 64.3828 29.9799 62.6876L29.3126 58.6843C29.1178 57.5154 28.3367 56.5418 27.2999 55.9679C27.0681 55.8396 26.839 55.707 26.6126 55.5703C25.5969 54.957 24.3615 54.7663 23.2503 55.1826L19.4476 56.6072C17.8383 57.2101 16.0289 56.5612 15.1697 55.0728L11.1166 48.0527C10.2573 46.5644 10.6 44.673 11.9268 43.5807L15.0654 40.9969C15.9795 40.2444 16.4326 39.0824 16.4107 37.8986C16.4082 37.7661 16.407 37.6333 16.407 37.5002C16.407 37.3672 16.4082 37.2344 16.4107 37.1019C16.4326 35.9182 15.9795 34.7562 15.0654 34.0037L11.9268 31.4199C10.6 30.3276 10.2573 28.4362 11.1166 26.9478L15.1697 19.9277C16.0289 18.4394 17.8383 17.7904 19.4476 18.3933L23.2503 19.818C24.3614 20.2342 25.5969 20.0435 26.6126 19.4302C26.8389 19.2935 27.0681 19.1609 27.2999 19.0326C28.3367 18.4587 29.1178 17.4851 29.3126 16.3162L29.9799 12.3129Z" fill="#1962C8"/>
<path d="M46.875 37.5C46.875 42.6777 42.6777 46.875 37.5 46.875C32.3223 46.875 28.125 42.6777 28.125 37.5C28.125 32.3223 32.3223 28.125 37.5 28.125C42.6777 28.125 46.875 32.3223 46.875 37.5Z" fill="#1962C8"/>
<circle cx="38" cy="38" r="14" fill="white"/>
<path d="M35.0526 38C36.6804 36.2489 39.3196 36.2489 40.9474 38M32.5263 35.2823C35.5493 32.0304 40.4507 32.0304 43.4737 35.2823M30 32.5647C34.4183 27.8118 41.5817 27.8118 46 32.5647" stroke="#FF0C00" stroke-width="1.7" stroke-linecap="round" stroke-linejoin="round"/>
<mask id="path-4-outside-1_36_1052" maskUnits="userSpaceOnUse" x="30" y="39" width="16" height="18" fill="black">
<rect fill="white" x="30" y="39" width="16" height="18"/>
<path d="M38 42C35.2386 42 33 43.9699 33 46.4C33 48.0271 34.0038 49.4474 35.494 50.2082C35.9095 50.4204 36.1696 50.7458 36.1814 51.0734C36.1879 51.254 36.3313 51.4084 36.5312 51.45C36.7441 51.4943 36.9611 51.5291 37.1816 51.5541C37.3777 51.5762 37.5456 51.438 37.5456 51.264V48.7781C37.3521 48.7593 37.1624 48.7285 36.9777 48.6867C36.7346 48.6316 36.5882 48.4136 36.6508 48.1996C36.7134 47.9857 36.9612 47.8569 37.2043 47.9119C37.4581 47.9694 37.7247 48.0001 38.0001 48.0001C38.2755 48.0001 38.5421 47.9694 38.7959 47.9119C39.039 47.8569 39.2868 47.9857 39.3494 48.1996C39.412 48.4136 39.2656 48.6316 39.0225 48.6867C38.8378 48.7285 38.6482 48.7593 38.4547 48.7781V51.264C38.4547 51.438 38.6225 51.5762 38.8187 51.554C39.039 51.5291 39.256 51.4943 39.4688 51.45C39.6688 51.4084 39.8121 51.254 39.8186 51.0734C39.8304 50.7458 40.0905 50.4204 40.506 50.2082C41.9962 49.4474 43 48.0271 43 46.4C43 43.9699 40.7614 42 38 42Z"/>
<path fill-rule="evenodd" clip-rule="evenodd" d="M36.1898 52.2131C36.2366 51.9961 36.4744 51.8535 36.7211 51.8947C37.135 51.9638 37.5625 52 38 52C38.4375 52 38.865 51.9638 39.2789 51.8947C39.5256 51.8535 39.7634 51.9961 39.8102 52.2131C39.857 52.4302 39.695 52.6395 39.4484 52.6807C38.9789 52.7591 38.4947 52.8 38 52.8C37.5053 52.8 37.0211 52.7591 36.5517 52.6807C36.305 52.6395 36.143 52.4302 36.1898 52.2131Z"/>
<path fill-rule="evenodd" clip-rule="evenodd" d="M36.6388 53.5168C36.6649 53.2971 36.8885 53.1376 37.1382 53.1606C37.4213 53.1866 37.7088 53.2 38 53.2C38.2912 53.2 38.5787 53.1866 38.8618 53.1606C39.1115 53.1376 39.3351 53.2971 39.3612 53.5168C39.3873 53.7365 39.2061 53.9332 38.9564 53.9562C38.6419 53.9852 38.3229 54 38 54C37.6771 54 37.3581 53.9852 37.0436 53.9562C36.7939 53.9332 36.6127 53.7365 36.6388 53.5168Z"/>
</mask>
<path d="M38 42C35.2386 42 33 43.9699 33 46.4C33 48.0271 34.0038 49.4474 35.494 50.2082C35.9095 50.4204 36.1696 50.7458 36.1814 51.0734C36.1879 51.254 36.3313 51.4084 36.5312 51.45C36.7441 51.4943 36.9611 51.5291 37.1816 51.5541C37.3777 51.5762 37.5456 51.438 37.5456 51.264V48.7781C37.3521 48.7593 37.1624 48.7285 36.9777 48.6867C36.7346 48.6316 36.5882 48.4136 36.6508 48.1996C36.7134 47.9857 36.9612 47.8569 37.2043 47.9119C37.4581 47.9694 37.7247 48.0001 38.0001 48.0001C38.2755 48.0001 38.5421 47.9694 38.7959 47.9119C39.039 47.8569 39.2868 47.9857 39.3494 48.1996C39.412 48.4136 39.2656 48.6316 39.0225 48.6867C38.8378 48.7285 38.6482 48.7593 38.4547 48.7781V51.264C38.4547 51.438 38.6225 51.5762 38.8187 51.554C39.039 51.5291 39.256 51.4943 39.4688 51.45C39.6688 51.4084 39.8121 51.254 39.8186 51.0734C39.8304 50.7458 40.0905 50.4204 40.506 50.2082C41.9962 49.4474 43 48.0271 43 46.4C43 43.9699 40.7614 42 38 42Z" fill="#FF0C00"/>
<path fill-rule="evenodd" clip-rule="evenodd" d="M36.1898 52.2131C36.2366 51.9961 36.4744 51.8535 36.7211 51.8947C37.135 51.9638 37.5625 52 38 52C38.4375 52 38.865 51.9638 39.2789 51.8947C39.5256 51.8535 39.7634 51.9961 39.8102 52.2131C39.857 52.4302 39.695 52.6395 39.4484 52.6807C38.9789 52.7591 38.4947 52.8 38 52.8C37.5053 52.8 37.0211 52.7591 36.5517 52.6807C36.305 52.6395 36.143 52.4302 36.1898 52.2131Z" fill="#FF0C00"/>
<path fill-rule="evenodd" clip-rule="evenodd" d="M36.6388 53.5168C36.6649 53.2971 36.8885 53.1376 37.1382 53.1606C37.4213 53.1866 37.7088 53.2 38 53.2C38.2912 53.2 38.5787 53.1866 38.8618 53.1606C39.1115 53.1376 39.3351 53.2971 39.3612 53.5168C39.3873 53.7365 39.2061 53.9332 38.9564 53.9562C38.6419 53.9852 38.3229 54 38 54C37.6771 54 37.3581 53.9852 37.0436 53.9562C36.7939 53.9332 36.6127 53.7365 36.6388 53.5168Z" fill="#FF0C00"/>
<path d="M35.494 50.2082L34.1298 52.8801L34.1298 52.8801L35.494 50.2082ZM36.1814 51.0734L33.1833 51.1811L33.1833 51.1811L36.1814 51.0734ZM36.5312 51.45L35.9203 54.3871L35.9203 54.3871L36.5312 51.45ZM37.5456 48.7781H40.5456C40.5456 47.2338 39.3733 45.9419 37.8363 45.7922L37.5456 48.7781ZM36.9777 48.6867L36.315 51.6126L36.315 51.6126L36.9777 48.6867ZM36.6508 48.1996L39.5302 49.0418L39.5302 49.0418L36.6508 48.1996ZM37.2043 47.9119L36.5416 50.8378L36.5416 50.8378L37.2043 47.9119ZM38.7959 47.9119L39.4586 50.8378L39.4586 50.8378L38.7959 47.9119ZM39.3494 48.1996L36.47 49.0418L36.47 49.0418L39.3494 48.1996ZM39.0225 48.6867L39.6852 51.6126L39.6852 51.6126L39.0225 48.6867ZM38.4547 48.7781L38.164 45.7922C36.627 45.9419 35.4547 47.2338 35.4547 48.7781H38.4547ZM39.4688 51.45L40.0797 54.3871L40.0797 54.3871L39.4688 51.45ZM39.8186 51.0734L36.8206 50.9656L36.8206 50.9656L39.8186 51.0734ZM40.506 50.2082L39.1417 47.5364L39.1417 47.5364L40.506 50.2082ZM38.8187 51.554L38.4815 48.573L38.8187 51.554ZM37.1816 51.5541L37.5186 48.5731L37.1816 51.5541ZM36.7211 51.8947L36.2271 54.8538L36.7211 51.8947ZM36.1898 52.2131L39.1224 52.8453L39.1224 52.8453L36.1898 52.2131ZM39.2789 51.8947L38.785 48.9356L38.785 48.9356L39.2789 51.8947ZM39.8102 52.2131L42.7429 51.581L42.7429 51.581L39.8102 52.2131ZM39.4484 52.6807L39.9423 55.6397L39.9423 55.6397L39.4484 52.6807ZM36.5517 52.6807L37.0456 49.7216L37.0456 49.7216L36.5517 52.6807ZM37.1382 53.1606L36.8632 56.1479L36.8632 56.1479L37.1382 53.1606ZM36.6388 53.5168L39.6179 53.8709L39.6179 53.8709L36.6388 53.5168ZM38.8618 53.1606L39.1368 56.1479L39.1368 56.1479L38.8618 53.1606ZM38.9564 53.9562L38.6814 50.9689L38.6814 50.9689L38.9564 53.9562ZM37.0436 53.9562L37.3186 50.9689L37.0436 53.9562ZM33 46.4H36C36 46.1474 36.1094 45.8374 36.4463 45.5409C36.7891 45.2393 37.3295 45 38 45V42V39C33.9536 39 30 41.9642 30 46.4H33ZM35.494 50.2082L36.8583 47.5364C36.1983 47.1994 36 46.7173 36 46.4H33H30C30 49.3368 31.8093 51.6953 34.1298 52.8801L35.494 50.2082ZM36.1814 51.0734L39.1794 50.9656C39.1127 49.1082 37.772 48.0029 36.8583 47.5364L35.494 50.2082L34.1298 52.8801C34.0226 52.8254 33.8327 52.7056 33.6417 52.4656C33.4505 52.2254 33.2052 51.7894 33.1833 51.1811L36.1814 51.0734ZM36.5312 51.45L37.142 48.5128C38.0503 48.7017 39.1279 49.5317 39.1794 50.9656L36.1814 51.0734L33.1833 51.1811C33.2478 52.9764 34.6122 54.1151 35.9203 54.3871L36.5312 51.45ZM37.1816 51.5541L37.5186 48.5731C37.3901 48.5585 37.2645 48.5383 37.142 48.5128L36.5312 51.45L35.9203 54.3871C36.2238 54.4503 36.5321 54.4998 36.8445 54.5351L37.1816 51.5541ZM37.5456 51.264H40.5456V48.7781H37.5456H34.5456V51.264H37.5456ZM37.5456 48.7781L37.8363 45.7922C37.7678 45.7856 37.7025 45.7749 37.6404 45.7608L36.9777 48.6867L36.315 51.6126C36.6224 51.6822 36.9363 51.733 37.2549 51.764L37.5456 48.7781ZM36.9777 48.6867L37.6404 45.7608C38.7371 46.0092 40.0477 47.2724 39.5302 49.0418L36.6508 48.1996L33.7715 47.3575C33.1288 49.5547 34.7321 51.2541 36.315 51.6126L36.9777 48.6867ZM36.6508 48.1996L39.5302 49.0418C39.0693 50.6175 37.5557 51.0675 36.5416 50.8378L37.2043 47.9119L37.867 44.9861C36.3667 44.6462 34.3575 45.3538 33.7714 47.3575L36.6508 48.1996ZM37.2043 47.9119L36.5416 50.8378C37.0128 50.9446 37.5017 51.0001 38.0001 51.0001V48.0001V45.0001C37.9477 45.0001 37.9034 44.9943 37.867 44.9861L37.2043 47.9119ZM38.0001 48.0001V51.0001C38.4985 51.0001 38.9874 50.9446 39.4586 50.8378L38.7959 47.9119L38.1332 44.9861C38.0968 44.9943 38.0525 45.0001 38.0001 45.0001V48.0001ZM38.7959 47.9119L39.4586 50.8378C38.4445 51.0675 36.9309 50.6175 36.47 49.0418L39.3494 48.1996L42.2288 47.3575C41.6428 45.3538 39.6335 44.6462 38.1332 44.9861L38.7959 47.9119ZM39.3494 48.1996L36.47 49.0418C35.9525 47.2724 37.2631 46.0092 38.3598 45.7608L39.0225 48.6867L39.6852 51.6126C41.2681 51.2541 42.8714 49.5547 42.2288 47.3575L39.3494 48.1996ZM39.0225 48.6867L38.3598 45.7608C38.2977 45.7749 38.2324 45.7856 38.164 45.7922L38.4547 48.7781L38.7453 51.764C39.0639 51.733 39.3778 51.6822 39.6852 51.6126L39.0225 48.6867ZM38.4547 48.7781H35.4547V51.264H38.4547H41.4547V48.7781H38.4547ZM39.4688 51.45L38.858 48.5128C38.7356 48.5383 38.61 48.5585 38.4815 48.573L38.8187 51.554L39.1558 54.535C39.4681 54.4997 39.7763 54.4502 40.0797 54.3871L39.4688 51.45ZM39.8186 51.0734L36.8206 50.9656C36.8721 49.5317 37.9498 48.7017 38.858 48.5128L39.4688 51.45L40.0797 54.3871C41.3877 54.1151 42.7522 52.9764 42.8167 51.1811L39.8186 51.0734ZM40.506 50.2082L39.1417 47.5364C38.228 48.0029 36.8873 49.1082 36.8206 50.9656L39.8186 51.0734L42.8167 51.1811C42.7948 51.7894 42.5495 52.2254 42.3583 52.4656C42.1673 52.7056 41.9774 52.8254 41.8702 52.8801L40.506 50.2082ZM43 46.4H40C40 46.7173 39.8017 47.1994 39.1417 47.5364L40.506 50.2082L41.8702 52.8801C44.1907 51.6953 46 49.3368 46 46.4H43ZM38 42V45C38.6705 45 39.2109 45.2393 39.5537 45.5409C39.8906 45.8374 40 46.1474 40 46.4H43H46C46 41.9642 42.0464 39 38 39V42ZM38.4547 51.264H35.4547C35.4547 53.5281 37.4924 54.7232 39.1558 54.535L38.8187 51.554L38.4815 48.573C39.7526 48.4293 41.4547 49.3478 41.4547 51.264H38.4547ZM37.1816 51.5541L36.8445 54.5351C38.5079 54.7231 40.5456 53.5281 40.5456 51.264H37.5456H34.5456C34.5456 49.3479 36.2475 48.4293 37.5186 48.5731L37.1816 51.5541ZM36.7211 51.8947L37.215 48.9356C35.7056 48.6837 33.7055 49.5012 33.2571 51.581L36.1898 52.2131L39.1224 52.8453C38.7677 54.491 37.2432 55.0234 36.2271 54.8538L36.7211 51.8947ZM38 52V49C37.7282 49 37.4659 48.9775 37.215 48.9356L36.7211 51.8947L36.2271 54.8538C36.8041 54.9501 37.3968 55 38 55V52ZM39.2789 51.8947L38.785 48.9356C38.5341 48.9775 38.2718 49 38 49V52V55C38.6032 55 39.1959 54.9501 39.7729 54.8538L39.2789 51.8947ZM39.8102 52.2131L42.7429 51.581C42.2945 49.5012 40.2944 48.6837 38.785 48.9356L39.2789 51.8947L39.7729 54.8538C38.7568 55.0234 37.2323 54.491 36.8776 52.8453L39.8102 52.2131ZM39.4484 52.6807L39.9423 55.6397C41.5123 55.3777 43.224 53.813 42.7429 51.581L39.8102 52.2131L36.8776 52.8453C36.49 51.0474 37.8777 49.9014 38.9544 49.7216L39.4484 52.6807ZM38 52.8V55.8C38.6603 55.8 39.3097 55.7453 39.9423 55.6397L39.4484 52.6807L38.9544 49.7216C38.648 49.7728 38.329 49.8 38 49.8V52.8ZM36.5517 52.6807L36.0577 55.6397C36.6903 55.7453 37.3397 55.8 38 55.8V52.8V49.8C37.671 49.8 37.352 49.7728 37.0456 49.7216L36.5517 52.6807ZM36.1898 52.2131L33.2571 51.581C32.776 53.813 34.4878 55.3777 36.0577 55.6397L36.5517 52.6807L37.0456 49.7216C38.1223 49.9014 39.51 51.0474 39.1224 52.8453L36.1898 52.2131ZM37.1382 53.1606L37.4132 50.1732C35.8925 50.0332 33.9166 51.0024 33.6598 53.1626L36.6388 53.5168L39.6179 53.8709C39.4133 55.5917 37.8846 56.242 36.8632 56.1479L37.1382 53.1606ZM38 53.2V50.2C37.8007 50.2 37.6049 50.1908 37.4132 50.1732L37.1382 53.1606L36.8632 56.1479C37.2377 56.1824 37.6169 56.2 38 56.2V53.2ZM38.8618 53.1606L38.5868 50.1732C38.3951 50.1908 38.1993 50.2 38 50.2V53.2V56.2C38.3831 56.2 38.7623 56.1824 39.1368 56.1479L38.8618 53.1606ZM39.3612 53.5168L42.3402 53.1626C42.0834 51.0024 40.1075 50.0332 38.5868 50.1732L38.8618 53.1606L39.1368 56.1479C38.1154 56.242 36.5867 55.5917 36.3821 53.8709L39.3612 53.5168ZM38.9564 53.9562L39.2314 56.9436C40.7853 56.8005 42.6075 55.4115 42.3402 53.1626L39.3612 53.5168L36.3821 53.8709C36.167 52.0615 37.6268 51.0659 38.6814 50.9689L38.9564 53.9562ZM38 54V57C38.4147 57 38.8256 56.981 39.2314 56.9436L38.9564 53.9562L38.6814 50.9689C38.4583 50.9894 38.231 51 38 51V54ZM37.0436 53.9562L36.7686 56.9436C37.1744 56.981 37.5853 57 38 57V54V51C37.769 51 37.5417 50.9894 37.3186 50.9689L37.0436 53.9562ZM36.6388 53.5168L33.6598 53.1626C33.3925 55.4115 35.2147 56.8005 36.7686 56.9436L37.0436 53.9562L37.3186 50.9689C38.3732 51.0659 39.833 52.0615 39.6179 53.8709L36.6388 53.5168Z" fill="white" mask="url(#path-4-outside-1_36_1052)"/>
</svg>
