<svg width="208" height="75" viewBox="0 0 208 75" fill="none" xmlns="http://www.w3.org/2000/svg">
<path d="M29.9799 12.3129C30.2624 10.6177 31.7291 9.37524 33.4477 9.37524H41.5538C43.2724 9.37524 44.739 10.6177 45.0216 12.3129L45.6888 16.3162C45.8836 17.4851 46.6648 18.4587 47.7015 19.0326C47.9333 19.1609 48.1625 19.2935 48.3888 19.4302C49.4045 20.0435 50.64 20.2342 51.7511 19.8179L55.5538 18.3933C57.1632 17.7904 58.9725 18.4393 59.8318 19.9277L63.8849 26.9478C64.7441 28.4361 64.4015 30.3275 63.0747 31.4198L59.9361 34.0036C59.022 34.7561 58.5689 35.9181 58.5908 37.1019C58.5932 37.2344 58.5945 37.3672 58.5945 37.5002C58.5945 37.6333 58.5932 37.7661 58.5908 37.8985C58.5689 39.0823 59.022 40.2443 59.9361 40.9968L63.0747 43.5806C64.4015 44.6729 64.7441 46.5643 63.8849 48.0527L59.8318 55.0728C58.9725 56.5611 57.1632 57.2101 55.5538 56.6072L51.7511 55.1825C50.64 54.7663 49.4046 54.957 48.3889 55.5703C48.1625 55.707 47.9334 55.8396 47.7015 55.9679C46.6648 56.5418 45.8836 57.5154 45.6888 58.6843L45.0216 62.6876C44.739 64.3828 43.2724 65.6252 41.5538 65.6252H33.4477C31.7291 65.6252 30.2624 64.3828 29.9799 62.6876L29.3126 58.6843C29.1178 57.5154 28.3367 56.5418 27.2999 55.9679C27.0681 55.8396 26.839 55.707 26.6126 55.5703C25.5969 54.957 24.3615 54.7663 23.2503 55.1826L19.4476 56.6072C17.8383 57.2101 16.0289 56.5612 15.1697 55.0728L11.1166 48.0527C10.2573 46.5644 10.6 44.673 11.9268 43.5807L15.0654 40.9969C15.9795 40.2444 16.4326 39.0824 16.4107 37.8986C16.4082 37.7661 16.407 37.6333 16.407 37.5002C16.407 37.3672 16.4082 37.2344 16.4107 37.1019C16.4326 35.9182 15.9795 34.7562 15.0654 34.0037L11.9268 31.4199C10.6 30.3276 10.2573 28.4362 11.1166 26.9478L15.1697 19.9277C16.0289 18.4394 17.8383 17.7904 19.4476 18.3933L23.2503 19.818C24.3614 20.2342 25.5969 20.0435 26.6126 19.4302C26.8389 19.2935 27.0681 19.1609 27.2999 19.0326C28.3367 18.4587 29.1178 17.4851 29.3126 16.3162L29.9799 12.3129Z" fill="#1962C8"/>
<path d="M46.875 37.5C46.875 42.6777 42.6777 46.875 37.5 46.875C32.3223 46.875 28.125 42.6777 28.125 37.5C28.125 32.3223 32.3223 28.125 37.5 28.125C42.6777 28.125 46.875 32.3223 46.875 37.5Z" fill="#1962C8"/>
<circle cx="38" cy="38" r="14" fill="white"/>
<path d="M35.0526 38C36.6804 36.2489 39.3196 36.2489 40.9474 38M32.5263 35.2823C35.5493 32.0304 40.4507 32.0304 43.4737 35.2823M30 32.5647C34.4183 27.8118 41.5817 27.8118 46 32.5647" stroke="#FF0C00" stroke-width="1.7" stroke-linecap="round" stroke-linejoin="round"/>
<mask id="path-4-outside-1_36_1051" maskUnits="userSpaceOnUse" x="30" y="39" width="16" height="18" fill="black">
<rect fill="white" x="30" y="39" width="16" height="18"/>
<path d="M38 42C35.2386 42 33 43.9699 33 46.4C33 48.0271 34.0038 49.4474 35.494 50.2082C35.9095 50.4204 36.1696 50.7458 36.1814 51.0734C36.1879 51.254 36.3313 51.4084 36.5312 51.45C36.7441 51.4943 36.9611 51.5291 37.1816 51.5541C37.3777 51.5762 37.5456 51.438 37.5456 51.264V48.7781C37.3521 48.7593 37.1624 48.7285 36.9777 48.6867C36.7346 48.6316 36.5882 48.4136 36.6508 48.1996C36.7134 47.9857 36.9612 47.8569 37.2043 47.9119C37.4581 47.9694 37.7247 48.0001 38.0001 48.0001C38.2755 48.0001 38.5421 47.9694 38.7959 47.9119C39.039 47.8569 39.2868 47.9857 39.3494 48.1996C39.412 48.4136 39.2656 48.6316 39.0225 48.6867C38.8378 48.7285 38.6482 48.7593 38.4547 48.7781V51.264C38.4547 51.438 38.6225 51.5762 38.8187 51.554C39.039 51.5291 39.256 51.4943 39.4688 51.45C39.6688 51.4084 39.8121 51.254 39.8186 51.0734C39.8304 50.7458 40.0905 50.4204 40.506 50.2082C41.9962 49.4474 43 48.0271 43 46.4C43 43.9699 40.7614 42 38 42Z"/>
<path fill-rule="evenodd" clip-rule="evenodd" d="M36.1898 52.2131C36.2366 51.9961 36.4744 51.8535 36.7211 51.8947C37.135 51.9638 37.5625 52 38 52C38.4375 52 38.865 51.9638 39.2789 51.8947C39.5256 51.8535 39.7634 51.9961 39.8102 52.2131C39.857 52.4302 39.695 52.6395 39.4484 52.6807C38.9789 52.7591 38.4947 52.8 38 52.8C37.5053 52.8 37.0211 52.7591 36.5517 52.6807C36.305 52.6395 36.143 52.4302 36.1898 52.2131Z"/>
<path fill-rule="evenodd" clip-rule="evenodd" d="M36.6388 53.5168C36.6649 53.2971 36.8885 53.1376 37.1382 53.1606C37.4213 53.1866 37.7088 53.2 38 53.2C38.2912 53.2 38.5787 53.1866 38.8618 53.1606C39.1115 53.1376 39.3351 53.2971 39.3612 53.5168C39.3873 53.7365 39.2061 53.9332 38.9564 53.9562C38.6419 53.9852 38.3229 54 38 54C37.6771 54 37.3581 53.9852 37.0436 53.9562C36.7939 53.9332 36.6127 53.7365 36.6388 53.5168Z"/>
</mask>
<path d="M38 42C35.2386 42 33 43.9699 33 46.4C33 48.0271 34.0038 49.4474 35.494 50.2082C35.9095 50.4204 36.1696 50.7458 36.1814 51.0734C36.1879 51.254 36.3313 51.4084 36.5312 51.45C36.7441 51.4943 36.9611 51.5291 37.1816 51.5541C37.3777 51.5762 37.5456 51.438 37.5456 51.264V48.7781C37.3521 48.7593 37.1624 48.7285 36.9777 48.6867C36.7346 48.6316 36.5882 48.4136 36.6508 48.1996C36.7134 47.9857 36.9612 47.8569 37.2043 47.9119C37.4581 47.9694 37.7247 48.0001 38.0001 48.0001C38.2755 48.0001 38.5421 47.9694 38.7959 47.9119C39.039 47.8569 39.2868 47.9857 39.3494 48.1996C39.412 48.4136 39.2656 48.6316 39.0225 48.6867C38.8378 48.7285 38.6482 48.7593 38.4547 48.7781V51.264C38.4547 51.438 38.6225 51.5762 38.8187 51.554C39.039 51.5291 39.256 51.4943 39.4688 51.45C39.6688 51.4084 39.8121 51.254 39.8186 51.0734C39.8304 50.7458 40.0905 50.4204 40.506 50.2082C41.9962 49.4474 43 48.0271 43 46.4C43 43.9699 40.7614 42 38 42Z" fill="#FF0C00"/>
<path fill-rule="evenodd" clip-rule="evenodd" d="M36.1898 52.2131C36.2366 51.9961 36.4744 51.8535 36.7211 51.8947C37.135 51.9638 37.5625 52 38 52C38.4375 52 38.865 51.9638 39.2789 51.8947C39.5256 51.8535 39.7634 51.9961 39.8102 52.2131C39.857 52.4302 39.695 52.6395 39.4484 52.6807C38.9789 52.7591 38.4947 52.8 38 52.8C37.5053 52.8 37.0211 52.7591 36.5517 52.6807C36.305 52.6395 36.143 52.4302 36.1898 52.2131Z" fill="#FF0C00"/>
<path fill-rule="evenodd" clip-rule="evenodd" d="M36.6388 53.5168C36.6649 53.2971 36.8885 53.1376 37.1382 53.1606C37.4213 53.1866 37.7088 53.2 38 53.2C38.2912 53.2 38.5787 53.1866 38.8618 53.1606C39.1115 53.1376 39.3351 53.2971 39.3612 53.5168C39.3873 53.7365 39.2061 53.9332 38.9564 53.9562C38.6419 53.9852 38.3229 54 38 54C37.6771 54 37.3581 53.9852 37.0436 53.9562C36.7939 53.9332 36.6127 53.7365 36.6388 53.5168Z" fill="#FF0C00"/>
<path d="M35.494 50.2082L34.1298 52.8801L34.1298 52.8801L35.494 50.2082ZM36.1814 51.0734L33.1833 51.1811L33.1833 51.1811L36.1814 51.0734ZM36.5312 51.45L35.9203 54.3871L35.9203 54.3871L36.5312 51.45ZM37.5456 48.7781H40.5456C40.5456 47.2338 39.3733 45.9419 37.8363 45.7922L37.5456 48.7781ZM36.9777 48.6867L36.315 51.6126L36.315 51.6126L36.9777 48.6867ZM36.6508 48.1996L39.5302 49.0418L39.5302 49.0418L36.6508 48.1996ZM37.2043 47.9119L36.5416 50.8378L36.5416 50.8378L37.2043 47.9119ZM38.7959 47.9119L39.4586 50.8378L39.4586 50.8378L38.7959 47.9119ZM39.3494 48.1996L36.47 49.0418L36.47 49.0418L39.3494 48.1996ZM39.0225 48.6867L39.6852 51.6126L39.6852 51.6126L39.0225 48.6867ZM38.4547 48.7781L38.164 45.7922C36.627 45.9419 35.4547 47.2338 35.4547 48.7781H38.4547ZM39.4688 51.45L40.0797 54.3871L40.0797 54.3871L39.4688 51.45ZM39.8186 51.0734L36.8206 50.9656L36.8206 50.9656L39.8186 51.0734ZM40.506 50.2082L39.1417 47.5364L39.1417 47.5364L40.506 50.2082ZM38.8187 51.554L38.4815 48.573L38.8187 51.554ZM37.1816 51.5541L37.5186 48.5731L37.1816 51.5541ZM36.7211 51.8947L36.2271 54.8538L36.7211 51.8947ZM36.1898 52.2131L39.1224 52.8453L39.1224 52.8453L36.1898 52.2131ZM39.2789 51.8947L38.785 48.9356L38.785 48.9356L39.2789 51.8947ZM39.8102 52.2131L42.7429 51.581L42.7429 51.581L39.8102 52.2131ZM39.4484 52.6807L39.9423 55.6397L39.9423 55.6397L39.4484 52.6807ZM36.5517 52.6807L37.0456 49.7216L37.0456 49.7216L36.5517 52.6807ZM37.1382 53.1606L36.8632 56.1479L36.8632 56.1479L37.1382 53.1606ZM36.6388 53.5168L39.6179 53.8709L39.6179 53.8709L36.6388 53.5168ZM38.8618 53.1606L39.1368 56.1479L39.1368 56.1479L38.8618 53.1606ZM38.9564 53.9562L38.6814 50.9689L38.6814 50.9689L38.9564 53.9562ZM37.0436 53.9562L37.3186 50.9689L37.0436 53.9562ZM33 46.4H36C36 46.1474 36.1094 45.8374 36.4463 45.5409C36.7891 45.2393 37.3295 45 38 45V42V39C33.9536 39 30 41.9642 30 46.4H33ZM35.494 50.2082L36.8583 47.5364C36.1983 47.1994 36 46.7173 36 46.4H33H30C30 49.3368 31.8093 51.6953 34.1298 52.8801L35.494 50.2082ZM36.1814 51.0734L39.1794 50.9656C39.1127 49.1082 37.772 48.0029 36.8583 47.5364L35.494 50.2082L34.1298 52.8801C34.0226 52.8254 33.8327 52.7056 33.6417 52.4656C33.4505 52.2254 33.2052 51.7894 33.1833 51.1811L36.1814 51.0734ZM36.5312 51.45L37.142 48.5128C38.0503 48.7017 39.1279 49.5317 39.1794 50.9656L36.1814 51.0734L33.1833 51.1811C33.2478 52.9764 34.6122 54.1151 35.9203 54.3871L36.5312 51.45ZM37.1816 51.5541L37.5186 48.5731C37.3901 48.5585 37.2645 48.5383 37.142 48.5128L36.5312 51.45L35.9203 54.3871C36.2238 54.4503 36.5321 54.4998 36.8445 54.5351L37.1816 51.5541ZM37.5456 51.264H40.5456V48.7781H37.5456H34.5456V51.264H37.5456ZM37.5456 48.7781L37.8363 45.7922C37.7678 45.7856 37.7025 45.7749 37.6404 45.7608L36.9777 48.6867L36.315 51.6126C36.6224 51.6822 36.9363 51.733 37.2549 51.764L37.5456 48.7781ZM36.9777 48.6867L37.6404 45.7608C38.7371 46.0092 40.0477 47.2724 39.5302 49.0418L36.6508 48.1996L33.7715 47.3575C33.1288 49.5547 34.7321 51.2541 36.315 51.6126L36.9777 48.6867ZM36.6508 48.1996L39.5302 49.0418C39.0693 50.6175 37.5557 51.0675 36.5416 50.8378L37.2043 47.9119L37.867 44.9861C36.3667 44.6462 34.3575 45.3538 33.7714 47.3575L36.6508 48.1996ZM37.2043 47.9119L36.5416 50.8378C37.0128 50.9446 37.5017 51.0001 38.0001 51.0001V48.0001V45.0001C37.9477 45.0001 37.9034 44.9943 37.867 44.9861L37.2043 47.9119ZM38.0001 48.0001V51.0001C38.4985 51.0001 38.9874 50.9446 39.4586 50.8378L38.7959 47.9119L38.1332 44.9861C38.0968 44.9943 38.0525 45.0001 38.0001 45.0001V48.0001ZM38.7959 47.9119L39.4586 50.8378C38.4445 51.0675 36.9309 50.6175 36.47 49.0418L39.3494 48.1996L42.2288 47.3575C41.6428 45.3538 39.6335 44.6462 38.1332 44.9861L38.7959 47.9119ZM39.3494 48.1996L36.47 49.0418C35.9525 47.2724 37.2631 46.0092 38.3598 45.7608L39.0225 48.6867L39.6852 51.6126C41.2681 51.2541 42.8714 49.5547 42.2288 47.3575L39.3494 48.1996ZM39.0225 48.6867L38.3598 45.7608C38.2977 45.7749 38.2324 45.7856 38.164 45.7922L38.4547 48.7781L38.7453 51.764C39.0639 51.733 39.3778 51.6822 39.6852 51.6126L39.0225 48.6867ZM38.4547 48.7781H35.4547V51.264H38.4547H41.4547V48.7781H38.4547ZM39.4688 51.45L38.858 48.5128C38.7356 48.5383 38.61 48.5585 38.4815 48.573L38.8187 51.554L39.1558 54.535C39.4681 54.4997 39.7763 54.4502 40.0797 54.3871L39.4688 51.45ZM39.8186 51.0734L36.8206 50.9656C36.8721 49.5317 37.9498 48.7017 38.858 48.5128L39.4688 51.45L40.0797 54.3871C41.3877 54.1151 42.7522 52.9764 42.8167 51.1811L39.8186 51.0734ZM40.506 50.2082L39.1417 47.5364C38.228 48.0029 36.8873 49.1082 36.8206 50.9656L39.8186 51.0734L42.8167 51.1811C42.7948 51.7894 42.5495 52.2254 42.3583 52.4656C42.1673 52.7056 41.9774 52.8254 41.8702 52.8801L40.506 50.2082ZM43 46.4H40C40 46.7173 39.8017 47.1994 39.1417 47.5364L40.506 50.2082L41.8702 52.8801C44.1907 51.6953 46 49.3368 46 46.4H43ZM38 42V45C38.6705 45 39.2109 45.2393 39.5537 45.5409C39.8906 45.8374 40 46.1474 40 46.4H43H46C46 41.9642 42.0464 39 38 39V42ZM38.4547 51.264H35.4547C35.4547 53.5281 37.4924 54.7232 39.1558 54.535L38.8187 51.554L38.4815 48.573C39.7526 48.4293 41.4547 49.3478 41.4547 51.264H38.4547ZM37.1816 51.5541L36.8445 54.5351C38.5079 54.7231 40.5456 53.5281 40.5456 51.264H37.5456H34.5456C34.5456 49.3479 36.2475 48.4293 37.5186 48.5731L37.1816 51.5541ZM36.7211 51.8947L37.215 48.9356C35.7056 48.6837 33.7055 49.5012 33.2571 51.581L36.1898 52.2131L39.1224 52.8453C38.7677 54.491 37.2432 55.0234 36.2271 54.8538L36.7211 51.8947ZM38 52V49C37.7282 49 37.4659 48.9775 37.215 48.9356L36.7211 51.8947L36.2271 54.8538C36.8041 54.9501 37.3968 55 38 55V52ZM39.2789 51.8947L38.785 48.9356C38.5341 48.9775 38.2718 49 38 49V52V55C38.6032 55 39.1959 54.9501 39.7729 54.8538L39.2789 51.8947ZM39.8102 52.2131L42.7429 51.581C42.2945 49.5012 40.2944 48.6837 38.785 48.9356L39.2789 51.8947L39.7729 54.8538C38.7568 55.0234 37.2323 54.491 36.8776 52.8453L39.8102 52.2131ZM39.4484 52.6807L39.9423 55.6397C41.5123 55.3777 43.224 53.813 42.7429 51.581L39.8102 52.2131L36.8776 52.8453C36.49 51.0474 37.8777 49.9014 38.9544 49.7216L39.4484 52.6807ZM38 52.8V55.8C38.6603 55.8 39.3097 55.7453 39.9423 55.6397L39.4484 52.6807L38.9544 49.7216C38.648 49.7728 38.329 49.8 38 49.8V52.8ZM36.5517 52.6807L36.0577 55.6397C36.6903 55.7453 37.3397 55.8 38 55.8V52.8V49.8C37.671 49.8 37.352 49.7728 37.0456 49.7216L36.5517 52.6807ZM36.1898 52.2131L33.2571 51.581C32.776 53.813 34.4878 55.3777 36.0577 55.6397L36.5517 52.6807L37.0456 49.7216C38.1223 49.9014 39.51 51.0474 39.1224 52.8453L36.1898 52.2131ZM37.1382 53.1606L37.4132 50.1732C35.8925 50.0332 33.9166 51.0024 33.6598 53.1626L36.6388 53.5168L39.6179 53.8709C39.4133 55.5917 37.8846 56.242 36.8632 56.1479L37.1382 53.1606ZM38 53.2V50.2C37.8007 50.2 37.6049 50.1908 37.4132 50.1732L37.1382 53.1606L36.8632 56.1479C37.2377 56.1824 37.6169 56.2 38 56.2V53.2ZM38.8618 53.1606L38.5868 50.1732C38.3951 50.1908 38.1993 50.2 38 50.2V53.2V56.2C38.3831 56.2 38.7623 56.1824 39.1368 56.1479L38.8618 53.1606ZM39.3612 53.5168L42.3402 53.1626C42.0834 51.0024 40.1075 50.0332 38.5868 50.1732L38.8618 53.1606L39.1368 56.1479C38.1154 56.242 36.5867 55.5917 36.3821 53.8709L39.3612 53.5168ZM38.9564 53.9562L39.2314 56.9436C40.7853 56.8005 42.6075 55.4115 42.3402 53.1626L39.3612 53.5168L36.3821 53.8709C36.167 52.0615 37.6268 51.0659 38.6814 50.9689L38.9564 53.9562ZM38 54V57C38.4147 57 38.8256 56.981 39.2314 56.9436L38.9564 53.9562L38.6814 50.9689C38.4583 50.9894 38.231 51 38 51V54ZM37.0436 53.9562L36.7686 56.9436C37.1744 56.981 37.5853 57 38 57V54V51C37.769 51 37.5417 50.9894 37.3186 50.9689L37.0436 53.9562ZM36.6388 53.5168L33.6598 53.1626C33.3925 55.4115 35.2147 56.8005 36.7686 56.9436L37.0436 53.9562L37.3186 50.9689C38.3732 51.0659 39.833 52.0615 39.6179 53.8709L36.6388 53.5168Z" fill="white" mask="url(#path-4-outside-1_36_1051)"/>
<path d="M81.0227 18.2273H87.0909L93.5 33.8636H93.7727L100.182 18.2273H106.25V41.5H101.477V26.3523H101.284L95.2614 41.3864H92.0114L85.9886 26.2955H85.7955V41.5H81.0227V18.2273ZM115.19 41.8295C114.077 41.8295 113.084 41.6364 112.213 41.25C111.342 40.8561 110.652 40.2765 110.145 39.5114C109.645 38.7386 109.395 37.7765 109.395 36.625C109.395 35.6553 109.573 34.8409 109.929 34.1818C110.285 33.5227 110.77 32.9924 111.384 32.5909C111.997 32.1894 112.694 31.8864 113.474 31.6818C114.262 31.4773 115.088 31.3333 115.952 31.25C116.967 31.1439 117.785 31.0455 118.406 30.9545C119.027 30.8561 119.478 30.7121 119.759 30.5227C120.039 30.3333 120.179 30.053 120.179 29.6818V29.6136C120.179 28.8939 119.952 28.3371 119.497 27.9432C119.05 27.5492 118.414 27.3523 117.588 27.3523C116.717 27.3523 116.024 27.5455 115.509 27.9318C114.993 28.3106 114.652 28.7879 114.486 29.3636L110.009 29C110.236 27.9394 110.683 27.0227 111.349 26.25C112.016 25.4697 112.876 24.8712 113.929 24.4545C114.99 24.0303 116.217 23.8182 117.611 23.8182C118.58 23.8182 119.509 23.9318 120.395 24.1591C121.289 24.3864 122.08 24.7386 122.77 25.2159C123.467 25.6932 124.016 26.3068 124.418 27.0568C124.819 27.7992 125.02 28.6894 125.02 29.7273V41.5H120.429V39.0795H120.293C120.012 39.625 119.637 40.1061 119.168 40.5227C118.698 40.9318 118.134 41.2538 117.474 41.4886C116.815 41.7159 116.054 41.8295 115.19 41.8295ZM116.577 38.4886C117.289 38.4886 117.918 38.3485 118.463 38.0682C119.009 37.7803 119.437 37.3939 119.747 36.9091C120.058 36.4242 120.213 35.875 120.213 35.2614V33.4091C120.062 33.5076 119.853 33.5985 119.588 33.6818C119.33 33.7576 119.039 33.8295 118.713 33.8977C118.387 33.9583 118.062 34.0152 117.736 34.0682C117.41 34.1136 117.115 34.1553 116.849 34.1932C116.281 34.2765 115.785 34.4091 115.361 34.5909C114.937 34.7727 114.607 35.0189 114.372 35.3295C114.137 35.6326 114.02 36.0114 114.02 36.4659C114.02 37.125 114.259 37.6288 114.736 37.9773C115.221 38.3182 115.834 38.4886 116.577 38.4886ZM128.776 41.5V24.0455H133.616V41.5H128.776ZM131.207 21.7955C130.488 21.7955 129.87 21.5568 129.355 21.0795C128.848 20.5947 128.594 20.0152 128.594 19.3409C128.594 18.6742 128.848 18.1023 129.355 17.625C129.87 17.1402 130.488 16.8977 131.207 16.8977C131.927 16.8977 132.541 17.1402 133.048 17.625C133.563 18.1023 133.821 18.6742 133.821 19.3409C133.821 20.0152 133.563 20.5947 133.048 21.0795C132.541 21.5568 131.927 21.7955 131.207 21.7955ZM142.335 31.4091V41.5H137.494V24.0455H142.108V27.125H142.312C142.699 26.1098 143.347 25.3068 144.256 24.7159C145.165 24.1174 146.267 23.8182 147.562 23.8182C148.775 23.8182 149.831 24.0833 150.733 24.6136C151.634 25.1439 152.335 25.9015 152.835 26.8864C153.335 27.8636 153.585 29.0303 153.585 30.3864V41.5H148.744V31.25C148.752 30.1818 148.479 29.3485 147.926 28.75C147.373 28.1439 146.612 27.8409 145.642 27.8409C144.991 27.8409 144.415 27.9811 143.915 28.2614C143.422 28.5417 143.036 28.9508 142.756 29.4886C142.483 30.0189 142.343 30.6591 142.335 31.4091ZM166.685 24.0455V27.6818H156.173V24.0455H166.685ZM158.56 19.8636H163.401V36.1364C163.401 36.5833 163.469 36.9318 163.605 37.1818C163.741 37.4242 163.931 37.5947 164.173 37.6932C164.423 37.7917 164.711 37.8409 165.037 37.8409C165.264 37.8409 165.491 37.822 165.719 37.7841C165.946 37.7386 166.12 37.7045 166.241 37.6818L167.003 41.2841C166.76 41.3598 166.42 41.447 165.98 41.5455C165.541 41.6515 165.007 41.7159 164.378 41.7386C163.211 41.7841 162.188 41.6288 161.31 41.2727C160.438 40.9167 159.76 40.3636 159.276 39.6136C158.791 38.8636 158.552 37.9167 158.56 36.7727V19.8636ZM169.838 41.5V24.0455H174.679V41.5H169.838ZM172.27 21.7955C171.55 21.7955 170.933 21.5568 170.418 21.0795C169.91 20.5947 169.656 20.0152 169.656 19.3409C169.656 18.6742 169.91 18.1023 170.418 17.625C170.933 17.1402 171.55 16.8977 172.27 16.8977C172.99 16.8977 173.603 17.1402 174.111 17.625C174.626 18.1023 174.884 18.6742 174.884 19.3409C174.884 20.0152 174.626 20.5947 174.111 21.0795C173.603 21.5568 172.99 21.7955 172.27 21.7955ZM187.943 24.0455V27.6818H177.17V24.0455H187.943ZM179.636 41.5V22.7841C179.636 21.5189 179.883 20.4697 180.375 19.6364C180.875 18.803 181.557 18.178 182.42 17.7614C183.284 17.3447 184.265 17.1364 185.364 17.1364C186.106 17.1364 186.784 17.1932 187.398 17.3068C188.019 17.4205 188.481 17.5227 188.784 17.6136L187.92 21.25C187.731 21.1894 187.496 21.1326 187.216 21.0795C186.943 21.0265 186.663 21 186.375 21C185.663 21 185.167 21.1667 184.886 21.5C184.606 21.8258 184.466 22.2841 184.466 22.875V41.5H179.636ZM193.889 48.0455C193.276 48.0455 192.7 47.9962 192.162 47.8977C191.632 47.8068 191.192 47.6894 190.844 47.5455L191.935 43.9318C192.503 44.1061 193.014 44.2008 193.469 44.2159C193.931 44.2311 194.329 44.125 194.662 43.8977C195.003 43.6705 195.279 43.2841 195.491 42.7386L195.776 42L189.514 24.0455H194.605L198.219 36.8636H198.401L202.048 24.0455H207.173L200.389 43.3864C200.063 44.3258 199.62 45.1439 199.06 45.8409C198.507 46.5455 197.806 47.0871 196.957 47.4659C196.109 47.8523 195.086 48.0455 193.889 48.0455Z" fill="#1962C8"/>
<path d="M87.4588 55.8281H85.5923C85.5582 55.5866 85.4886 55.3722 85.3835 55.1847C85.2784 54.9943 85.1435 54.8324 84.9787 54.6989C84.8139 54.5653 84.6236 54.4631 84.4077 54.392C84.1946 54.321 83.9631 54.2855 83.7131 54.2855C83.2614 54.2855 82.8679 54.3977 82.5327 54.6222C82.1974 54.8437 81.9375 55.1676 81.7528 55.5938C81.5682 56.017 81.4759 56.5312 81.4759 57.1364C81.4759 57.7585 81.5682 58.2812 81.7528 58.7045C81.9403 59.1278 82.2017 59.4474 82.5369 59.6634C82.8722 59.8793 83.2599 59.9872 83.7003 59.9872C83.9474 59.9872 84.1761 59.9545 84.3864 59.8892C84.5994 59.8239 84.7884 59.7287 84.9531 59.6037C85.1179 59.4759 85.2543 59.321 85.3622 59.1392C85.473 58.9574 85.5497 58.75 85.5923 58.517L87.4588 58.5256C87.4105 58.9261 87.2898 59.3125 87.0966 59.6847C86.9063 60.054 86.6491 60.3849 86.3253 60.6776C86.0043 60.9673 85.6207 61.1974 85.1747 61.3679C84.7315 61.5355 84.2301 61.6193 83.6705 61.6193C82.892 61.6193 82.196 61.4432 81.5824 61.0909C80.9716 60.7386 80.4886 60.2287 80.1335 59.5611C79.7812 58.8935 79.6051 58.0852 79.6051 57.1364C79.6051 56.1847 79.7841 55.375 80.142 54.7074C80.5 54.0398 80.9858 53.5312 81.5994 53.1818C82.2131 52.8295 82.9034 52.6534 83.6705 52.6534C84.1761 52.6534 84.6449 52.7244 85.0767 52.8665C85.5114 53.0085 85.8963 53.2159 86.2315 53.4886C86.5668 53.7585 86.8395 54.0895 87.0497 54.4815C87.2628 54.8736 87.3991 55.3224 87.4588 55.8281ZM88.782 52.7727H91.0575L93.4609 58.6364H93.5632L95.9666 52.7727H98.2422V61.5H96.4524V55.8196H96.38L94.1214 61.4574H92.9027L90.6442 55.7983H90.5717V61.5H88.782V52.7727ZM99.7624 52.7727H102.038L104.441 58.6364H104.544L106.947 52.7727H109.223V61.5H107.433V55.8196H107.36L105.102 61.4574H103.883L101.625 55.7983H101.552V61.5H99.7624V52.7727ZM115.477 55.2827C115.443 54.9389 115.297 54.6719 115.038 54.4815C114.78 54.2912 114.429 54.196 113.986 54.196C113.685 54.196 113.43 54.2386 113.223 54.3239C113.016 54.4062 112.857 54.5213 112.746 54.669C112.638 54.8168 112.584 54.9844 112.584 55.1719C112.578 55.3281 112.611 55.4645 112.682 55.581C112.756 55.6974 112.857 55.7983 112.984 55.8835C113.112 55.9659 113.26 56.0384 113.428 56.1009C113.595 56.1605 113.774 56.2116 113.964 56.2543L114.749 56.4418C115.129 56.527 115.479 56.6406 115.797 56.7827C116.115 56.9247 116.391 57.0994 116.624 57.3068C116.857 57.5142 117.037 57.7585 117.165 58.0398C117.295 58.321 117.362 58.6435 117.365 59.0071C117.362 59.5412 117.226 60.0043 116.956 60.3963C116.689 60.7855 116.303 61.0881 115.797 61.304C115.294 61.517 114.688 61.6236 113.977 61.6236C113.273 61.6236 112.659 61.5156 112.136 61.2997C111.616 61.0838 111.21 60.7642 110.918 60.3409C110.628 59.9148 110.476 59.3878 110.462 58.7599H112.247C112.267 59.0526 112.351 59.2969 112.499 59.4929C112.649 59.6861 112.849 59.8324 113.099 59.9318C113.352 60.0284 113.638 60.0767 113.956 60.0767C114.268 60.0767 114.54 60.0312 114.77 59.9403C115.003 59.8494 115.183 59.723 115.311 59.5611C115.439 59.3991 115.503 59.2131 115.503 59.0028C115.503 58.8068 115.445 58.642 115.328 58.5085C115.214 58.375 115.047 58.2614 114.825 58.1676C114.607 58.0739 114.338 57.9886 114.02 57.9119L113.07 57.6733C112.334 57.4943 111.753 57.2145 111.327 56.8338C110.901 56.4531 110.689 55.9403 110.692 55.2955C110.689 54.767 110.83 54.3054 111.114 53.9105C111.401 53.5156 111.794 53.2074 112.294 52.9858C112.794 52.7642 113.362 52.6534 113.999 52.6534C114.646 52.6534 115.212 52.7642 115.695 52.9858C116.18 53.2074 116.558 53.5156 116.828 53.9105C117.098 54.3054 117.237 54.7628 117.246 55.2827H115.477Z" fill="#1962C8"/>
</svg>
